<?xml version="1.0" standalone="no"?>
<!DOCTYPE svg PUBLIC "-//W3C//DTD SVG 20010904//EN"
 "http://www.w3.org/TR/2001/REC-SVG-20010904/DTD/svg10.dtd">
<svg version="1.0" xmlns="http://www.w3.org/2000/svg"
 width="400.000000pt" height="400.000000pt" viewBox="0 0 400.000000 400.000000"
 preserveAspectRatio="xMidYMid meet">
<metadata>
Created by potrace 1.14, written by Peter Selinger 2001-2017
</metadata>
<g transform="translate(0.000000,400.000000) scale(0.100000,-0.100000)"
fill="#000000" stroke="none">
<path d="M999 3987 c-23 -18 -137 -155 -168 -202 -14 -22 -29 -42 -32 -45 -20
-16 -70 -140 -94 -234 -24 -96 -27 -120 -21 -200 4 -50 11 -109 16 -131 5 -22
7 -41 4 -44 -2 -2 -36 4 -76 13 -113 27 -168 32 -168 14 0 -16 28 -28 66 -28
20 0 68 -46 91 -87 11 -20 8 -25 -35 -60 -50 -40 -161 -143 -195 -180 -11 -13
-28 -23 -38 -23 -18 0 -22 -9 -34 -67 -4 -18 -11 -35 -15 -38 -11 -7 -90 -166
-90 -180 0 -4 -6 -16 -14 -24 -13 -15 -24 -56 -58 -221 -6 -30 -12 -125 -12
-210 0 -141 2 -163 27 -241 15 -48 27 -93 27 -101 0 -8 14 -36 31 -63 l31 -49
-22 -16 c-26 -18 -104 -86 -138 -120 -14 -14 -36 -50 -51 -80 -22 -48 -26 -71
-29 -185 -5 -169 9 -210 111 -323 40 -43 86 -87 102 -96 17 -9 53 -32 80 -52
28 -19 67 -39 87 -44 20 -6 49 -17 65 -25 15 -8 34 -15 41 -15 14 0 17 -36 3
-45 -5 -3 -21 -41 -36 -85 -18 -53 -41 -97 -70 -132 -53 -66 -60 -87 -44 -147
10 -41 10 -59 -4 -114 -24 -96 -23 -107 13 -107 24 0 30 4 31 23 0 12 4 31 8
42 7 17 11 15 35 -23 26 -42 27 -42 86 -42 33 0 60 3 60 6 0 4 -20 26 -45 50
-25 23 -45 47 -45 53 0 6 -9 20 -19 30 -10 10 -26 45 -36 76 -11 40 -20 55
-30 51 -15 -6 -28 20 -18 37 4 7 23 32 44 57 20 25 42 55 48 68 21 40 39 27
47 -35 13 -108 59 -267 95 -328 l35 -60 83 -3 c70 -2 85 0 97 15 13 17 13 17
14 1 0 -16 12 -18 115 -18 70 0 115 4 115 10 0 6 -4 10 -9 10 -5 0 -37 23 -70
51 -34 28 -61 46 -61 39 0 -6 -4 -9 -9 -5 -5 3 -11 -9 -13 -27 -3 -36 2 -40
-67 45 -29 37 -42 66 -55 123 -22 100 -21 108 14 144 36 37 47 37 62 5 6 -14
15 -25 20 -25 4 0 8 -13 8 -29 0 -28 17 -93 47 -178 12 -35 28 -51 104 -103
57 -39 99 -60 112 -58 18 3 6 14 -57 58 -43 30 -89 62 -102 70 -21 13 -31 29
-64 105 -27 61 -18 122 14 96 9 -8 16 -21 16 -31 0 -29 69 -135 118 -182 26
-25 73 -61 104 -82 l57 -36 621 0 c446 0 620 3 620 11 0 6 11 24 25 40 13 16
27 46 31 67 4 20 12 43 17 51 15 17 37 81 37 104 0 11 5 15 11 11 8 -4 9 0 4
15 -4 12 -2 21 4 21 6 0 11 14 11 30 0 41 36 43 46 3 4 -16 18 -45 30 -65 13
-20 29 -57 35 -82 6 -25 17 -46 23 -46 7 0 12 -15 13 -35 1 -26 11 -47 40 -79
l38 -44 190 0 c105 0 184 2 178 5 -28 11 -10 18 37 15 27 -2 50 -8 50 -13 0
-4 158 -8 350 -9 l350 0 0 1008 c0 675 -4 1021 -11 1047 -8 28 -8 40 1 45 9 6
9 13 0 30 -6 12 -14 19 -17 16 -8 -7 -43 64 -43 87 0 18 2 17 25 -4 13 -13 25
-30 25 -36 0 -7 5 -13 10 -13 6 0 10 14 10 31 0 25 -11 41 -50 78 -65 60 -73
67 -144 124 -57 46 -61 53 -91 141 -33 95 -93 223 -126 265 -11 13 -19 30 -19
38 0 8 -16 33 -35 56 -19 22 -35 44 -35 48 0 7 36 39 84 74 15 11 77 57 137
103 l110 83 84 -87 c59 -60 85 -81 85 -68 0 23 -68 119 -90 128 -18 8 -58 31
-66 38 -10 11 45 60 60 55 8 -3 32 -36 53 -72 33 -58 38 -64 41 -41 2 17 -9
45 -32 79 -20 30 -36 59 -36 66 0 6 16 33 35 60 48 67 46 92 -4 41 -21 -22
-44 -40 -50 -40 -7 0 -37 -11 -67 -25 -30 -14 -57 -25 -60 -25 -3 0 -30 -11
-61 -26 -72 -32 -197 -62 -309 -73 l-89 -8 67 -2 c37 0 101 4 143 10 78 11
233 60 270 85 11 8 26 14 33 14 22 0 1 -21 -74 -76 -35 -26 -64 -50 -64 -54 0
-9 -93 -60 -150 -83 -65 -25 -160 -34 -174 -16 -29 38 -129 112 -189 140 -37
17 -67 36 -67 43 0 7 24 32 52 55 42 34 58 41 78 36 187 -48 298 -39 574 46
120 38 176 64 176 84 0 21 -23 19 -62 -5 -41 -25 -73 -25 -90 -1 -7 10 -40 31
-73 46 -53 24 -57 28 -38 36 12 4 37 4 55 -2 53 -15 64 -12 43 11 -30 33 -123
62 -265 81 -74 10 -166 26 -205 34 -38 9 -87 14 -107 11 -47 -8 -48 5 -7 41
17 16 44 39 59 53 16 14 54 38 87 55 32 16 65 34 73 40 8 6 57 29 109 51 l94
39 -51 3 c-43 3 -65 -4 -137 -38 -112 -54 -196 -112 -264 -183 -57 -59 -89
-107 -72 -107 5 0 22 7 37 15 44 23 214 18 214 -6 0 -5 -19 -9 -42 -9 -73 0
-273 -49 -308 -74 -8 -6 -30 -19 -47 -29 -28 -15 -33 -16 -33 -3 0 8 11 27 24
43 12 15 38 54 55 86 18 32 39 66 46 75 27 32 64 87 84 124 21 37 29 41 161
87 48 17 51 20 24 20 -17 1 -50 -6 -73 -14 -23 -8 -45 -14 -49 -14 -23 4 -52
-2 -48 -9 3 -5 -21 -42 -52 -83 -31 -41 -70 -94 -86 -119 -16 -25 -47 -70 -68
-102 -21 -31 -38 -59 -38 -62 0 -4 -20 -39 -44 -79 -24 -39 -80 -144 -125
-232 -77 -149 -103 -184 -138 -185 -7 0 -13 9 -13 19 0 11 -5 23 -11 26 -11 7
-68 -17 -112 -47 -29 -21 -57 -18 -57 4 0 7 41 63 92 123 50 61 106 133 124
160 32 47 72 103 172 245 23 33 50 68 60 78 9 10 28 33 42 51 67 89 106 128
150 151 61 31 73 44 37 38 -21 -4 -27 -2 -23 8 8 20 -8 17 -28 -5 -10 -11 -32
-25 -49 -32 -97 -38 -253 -108 -298 -133 -52 -31 -59 -31 -59 -8 -1 13 -3 12
-14 -6 -7 -13 -39 -36 -71 -53 -66 -33 -65 -33 -65 -18 0 20 54 85 157 187 57
56 103 105 103 108 0 10 -65 -40 -124 -96 -63 -59 -109 -120 -141 -184 -16
-33 -34 -48 -94 -79 -40 -21 -76 -35 -79 -32 -22 21 10 271 47 368 17 45 -7
31 -29 -17 -26 -59 -52 -220 -48 -308 l3 -71 -56 -29 -57 -29 -26 26 c-22 22
-31 25 -68 19 -62 -9 -201 -45 -213 -55 -26 -24 -35 -8 -35 60 0 76 12 121 45
166 12 17 31 51 44 76 12 26 53 79 91 118 41 43 62 71 53 71 -9 0 -24 -7 -34
-16 -10 -9 -32 -20 -51 -24 -18 -5 -44 -12 -57 -16 -23 -7 -24 -5 -18 24 10
48 -15 40 -35 -11 -29 -71 -57 -226 -65 -357 l-8 -125 -55 -27 c-77 -38 -80
-37 -80 25 0 55 32 248 51 305 6 18 9 38 7 44 -6 16 -55 -142 -68 -216 -5 -33
-10 -100 -10 -148 0 -49 -4 -97 -10 -107 -5 -10 -16 -78 -25 -152 -22 -181
-24 -188 -36 -166 -34 60 -51 338 -29 473 15 93 93 316 124 354 7 8 25 38 40
65 l28 50 -36 -40 c-19 -22 -42 -53 -51 -70 -8 -16 -20 -37 -25 -45 -25 -40
-72 -167 -92 -247 -18 -75 -22 -118 -22 -288 -1 -146 2 -206 12 -222 8 -15 9
-23 2 -23 -6 0 -15 11 -21 24 -7 16 -17 22 -29 19 -25 -7 -108 75 -120 118
-19 65 -8 204 20 264 5 11 23 62 41 114 50 148 134 319 202 409 19 25 -10 11
-42 -20 -36 -36 -138 -236 -177 -348 -50 -148 -75 -226 -85 -273 -6 -26 -15
-45 -20 -41 -5 3 -9 -5 -9 -16 0 -16 5 -20 15 -16 8 3 15 1 15 -4 0 -27 -109
21 -117 51 -3 10 -13 21 -22 24 -20 6 -21 8 -21 132 -2 138 41 249 151 399 24
33 57 73 72 89 23 25 25 31 11 33 -17 4 -47 -25 -99 -94 -16 -21 -34 -44 -40
-50 -6 -6 -19 -31 -30 -55 -11 -24 -22 -46 -25 -49 -10 -8 -48 -93 -55 -122
-4 -16 -11 -28 -16 -28 -5 0 -9 -5 -9 -11 0 -5 5 -7 12 -3 8 5 9 2 4 -12 -4
-10 -9 -39 -12 -64 -2 -25 -6 -54 -8 -65 -2 -11 -4 -24 -5 -28 -2 -12 -61 26
-61 39 0 7 6 14 13 17 8 3 9 8 2 15 -14 15 -1 205 21 296 9 39 27 104 40 144
26 83 16 98 -13 20 -52 -137 -66 -214 -67 -355 -1 -68 -3 -123 -5 -123 -3 0
-13 7 -23 17 -22 19 -25 1 -3 -21 12 -11 13 -21 5 -42 -15 -39 20 -151 60
-194 53 -57 66 -100 31 -100 -24 0 -38 18 -61 77 -10 26 -22 49 -27 50 -6 2
-13 -24 -16 -57 -7 -65 -29 -102 -50 -81 -6 6 -17 11 -24 11 -20 0 -15 -28 7
-42 20 -13 27 -43 12 -52 -5 -3 -19 9 -32 26 -21 28 -22 37 -15 112 3 44 18
121 32 169 14 49 23 91 20 93 -8 9 -46 -65 -52 -103 -11 -62 -14 -70 -25 -53
-8 12 -10 11 -10 -7 0 -16 -5 -20 -20 -16 -14 4 -20 0 -20 -11 0 -9 -5 -16
-11 -16 -5 0 -7 6 -3 13 4 7 3 9 -2 4 -5 -5 -10 -12 -10 -15 -7 -32 -20 -54
-41 -67 -14 -9 -26 -15 -27 -13 -1 2 -7 30 -14 64 -29 144 -4 295 69 432 47
88 131 214 208 311 27 34 30 41 14 41 -10 0 -25 -6 -34 -13z m1970 -144 c-7
-10 -36 -45 -63 -78 -28 -33 -54 -64 -58 -70 -4 -5 -20 -26 -35 -45 -15 -19
-32 -42 -38 -51 -9 -16 -133 -193 -172 -248 -54 -75 -110 -149 -130 -171 -13
-14 -23 -30 -23 -37 0 -25 -17 -12 -33 25 -23 52 -81 153 -139 241 -27 41 -46
81 -44 88 3 7 31 25 63 41 32 16 129 65 215 110 174 90 298 145 298 133 0 -4
-24 -28 -52 -52 -161 -134 -316 -285 -371 -360 -47 -64 -12 -44 76 44 45 45
127 123 182 172 55 50 139 128 187 175 84 81 107 98 137 99 11 1 11 -2 0 -16z
m690 -208 c47 -8 86 -17 88 -19 2 -2 -22 -6 -54 -10 -32 -4 -83 -13 -113 -21
-30 -8 -70 -15 -88 -15 -19 0 -35 -6 -38 -14 -3 -8 -20 -20 -37 -27 -18 -7
-43 -20 -57 -29 -14 -9 -54 -27 -90 -39 -63 -23 -272 -131 -290 -152 -3 -3
-31 -25 -63 -49 -91 -68 -148 -130 -120 -130 4 0 25 19 48 43 22 23 63 58 90
77 71 50 238 150 250 150 10 -1 1 -9 -162 -152 -116 -101 -180 -170 -199 -215
-8 -18 -18 -33 -22 -33 -9 0 -48 90 -55 125 -6 32 39 111 89 157 109 101 198
149 389 211 212 69 209 68 148 62 -28 -3 -91 -19 -140 -36 -48 -17 -103 -35
-122 -41 -19 -5 -51 -19 -70 -29 -20 -10 -39 -19 -44 -19 -7 0 -33 -17 -95
-65 -7 -5 -25 -22 -39 -38 -15 -15 -28 -25 -31 -23 -5 6 45 110 73 151 29 44
60 72 87 80 12 4 32 13 43 19 132 81 417 117 624 81z m76 -98 c28 -15 64 -33
82 -41 61 -30 57 -32 -155 -92 -146 -41 -397 -43 -397 -4 0 12 109 73 191 107
172 71 194 73 279 30z m-1540 -66 c30 -37 55 -72 55 -76 0 -5 11 -22 24 -39
39 -52 206 -373 206 -397 0 -5 4 -9 9 -9 5 0 13 -9 16 -20 4 -11 36 -82 71
-158 108 -229 121 -258 156 -357 16 -44 36 -105 44 -135 8 -30 22 -73 30 -95
9 -22 18 -62 21 -90 l4 -50 -30 55 c-17 30 -30 61 -31 67 0 26 -35 93 -47 93
-7 0 -25 19 -39 43 -26 42 -130 187 -187 260 -16 22 -26 45 -23 53 7 20 28 14
41 -12 6 -10 23 -38 38 -61 15 -24 27 -45 27 -49 0 -3 16 -25 35 -48 19 -24
35 -47 35 -52 1 -17 37 -57 43 -47 6 10 -62 145 -121 238 -17 28 -41 67 -52
88 -11 20 -25 37 -30 37 -6 0 -10 6 -10 13 0 12 -41 79 -78 127 -10 14 -27 41
-37 60 -10 19 -21 37 -24 40 -4 3 -15 18 -25 35 -11 16 -23 34 -28 40 -5 5
-38 51 -74 100 -87 119 -133 174 -227 267 -43 43 -76 82 -73 87 9 14 159 57
208 60 10 1 41 -28 73 -68z m-271 -54 c109 -113 205 -228 286 -342 38 -55 77
-109 84 -120 8 -11 53 -81 100 -155 62 -99 82 -138 74 -147 -18 -22 -32 -14
-70 40 -34 47 -98 124 -243 292 -27 32 -96 105 -153 161 -56 57 -106 114 -111
127 -5 13 -12 48 -15 78 -4 30 -9 66 -12 82 -8 39 11 34 60 -16z m-89 14 c3
-5 8 -42 11 -83 5 -71 5 -72 -13 -52 -10 11 -32 27 -50 36 l-31 16 5 -32 c3
-23 -2 -41 -21 -68 -14 -21 -23 -45 -20 -53 4 -8 1 -15 -5 -15 -6 0 -11 8 -12
18 -9 177 -12 169 71 216 50 29 56 30 65 17z m-719 -68 c24 -27 44 -51 44 -55
0 -3 20 -19 45 -35 25 -15 45 -32 45 -37 0 -4 -11 -1 -25 8 -34 22 -66 20 -72
-4 -7 -27 -19 -25 -27 3 -3 12 -14 32 -25 43 -26 28 -53 124 -35 124 3 0 26
-21 50 -47z m2764 -40 c0 -13 -62 -75 -68 -68 -3 3 10 21 28 40 36 37 40 40
40 28z m-2073 -77 c-4 -22 -1 -36 6 -39 9 -3 8 -8 -2 -20 -28 -34 -35 -15 -25
61 3 17 10 32 16 32 7 0 9 -13 5 -34z m1346 -22 c69 -35 143 -89 191 -139 46
-48 153 -177 185 -223 63 -91 171 -330 171 -380 0 -13 6 -29 13 -37 15 -14 51
-191 46 -220 -3 -15 -7 -12 -19 11 -8 16 -17 31 -20 34 -3 3 -16 28 -30 55
-13 28 -25 52 -26 54 -2 1 -7 0 -13 -3 -10 -7 36 -117 52 -124 4 -2 7 -14 7
-27 0 -13 6 -30 13 -37 16 -16 29 -62 20 -71 -3 -4 -19 18 -34 48 -15 30 -37
68 -48 84 -12 16 -21 34 -21 39 0 20 -33 112 -40 112 -5 0 -11 12 -15 28 -5
22 -56 135 -86 192 -4 8 -27 53 -50 100 -24 47 -49 89 -56 93 -7 4 -13 12 -13
18 0 13 -47 86 -88 134 -18 22 -37 45 -41 50 -45 55 -191 165 -219 165 -22 0
-12 28 16 49 35 26 43 26 105 -5z m-1844 -9 c23 -12 59 -72 49 -80 -2 -1 -25
20 -52 46 -49 50 -48 61 3 34z m2460 -8 c-13 -12 -42 -36 -64 -52 -22 -16 -46
-35 -53 -42 -8 -7 -30 -25 -50 -40 -21 -15 -53 -42 -73 -60 -20 -19 -42 -31
-50 -28 -8 3 -27 24 -42 45 -24 34 -26 41 -13 46 9 4 28 4 42 1 14 -2 43 -1
64 4 45 10 195 96 224 128 11 12 24 21 29 21 5 0 -1 -10 -14 -23z m-2871 -50
c3 -36 2 -37 -22 -31 -25 6 -26 4 -26 -37 0 -24 -4 -50 -8 -57 -10 -16 -42 -5
-42 14 0 8 -5 14 -11 14 -6 0 -8 9 -4 21 4 12 8 28 9 35 3 22 69 85 86 82 9
-2 16 -17 18 -41z m777 -71 l-10 -29 -3 38 c-2 21 0 50 4 64 7 25 8 25 13 -9
4 -19 2 -48 -4 -64z m1378 64 c107 -80 217 -204 290 -324 44 -74 151 -284 193
-381 9 -22 28 -57 41 -77 13 -21 22 -38 20 -38 -2 0 -42 38 -90 84 -70 67 -87
90 -84 108 2 13 2 17 0 11 -11 -33 -43 1 -46 49 -1 18 -6 38 -9 44 -4 6 -9 21
-12 35 -13 70 -38 147 -55 169 -24 34 -78 39 -109 10 -21 -20 -23 -20 -29 -3
-6 19 -68 98 -117 151 -32 34 -114 82 -141 82 -8 0 -15 3 -15 7 0 14 95 103
110 103 8 0 32 -14 53 -30z m-1765 -25 c45 -43 64 -54 214 -125 36 -17 72 -37
78 -45 20 -24 42 -17 85 26 22 22 53 43 68 46 15 3 33 14 40 24 7 10 25 21 40
24 15 4 27 12 27 19 0 6 5 3 11 -7 14 -25 57 -15 84 20 l21 25 62 -69 c34 -37
67 -72 72 -78 6 -5 19 -18 28 -29 9 -10 22 -23 28 -29 17 -17 -21 -47 -126
-100 -177 -90 -283 -122 -363 -111 -32 5 -46 2 -56 -10 -20 -24 9 -52 62 -60
90 -14 365 110 489 219 l26 24 59 -66 c32 -36 80 -95 107 -130 59 -77 64 -71
-104 -137 -63 -25 -133 -54 -155 -66 -21 -11 -47 -20 -57 -20 -9 0 -53 -17
-96 -38 -118 -58 -145 -60 -250 -15 -48 21 -90 42 -94 47 -3 5 -9 34 -13 64
-8 65 -21 58 -33 -18 l-9 -55 -8 73 c-6 59 -10 70 -21 61 -8 -6 -14 -21 -15
-33 0 -19 -1 -19 -11 4 -11 24 -11 23 -20 -20 -6 -25 -14 -54 -18 -65 -9 -19
-9 -19 -16 3 -4 15 -12 21 -21 18 -8 -3 -19 -6 -23 -6 -5 0 -25 -17 -45 -37
-33 -34 -42 -38 -84 -37 -49 2 -191 55 -226 85 -11 9 -54 35 -95 59 -41 23
-89 52 -106 64 -62 44 -114 88 -114 95 0 32 230 284 254 279 6 -1 26 13 45 31
19 18 47 39 63 47 27 14 32 13 63 -6 38 -24 39 -23 49 41 5 31 24 51 54 58 1
1 24 -19 50 -44z m475 13 c-6 -7 -15 -26 -22 -43 l-11 -30 6 35 c6 36 23 65
32 55 3 -2 0 -10 -5 -17z m-1105 -37 c74 -26 80 -35 37 -55 -20 -10 -38 -16
-39 -14 -1 1 -17 22 -35 46 -18 23 -29 42 -24 42 5 0 32 -8 61 -19z m1942 -16
c0 -24 24 -28 65 -11 52 22 64 20 71 -11 4 -16 10 -33 15 -38 14 -19 51 -159
70 -269 21 -121 25 -98 -45 -230 l-26 -49 -15 39 c-9 21 -26 62 -39 89 -65
137 -69 147 -58 154 5 3 13 24 17 46 4 22 9 48 12 58 2 9 -1 17 -7 17 -15 0
-41 -65 -34 -84 3 -9 1 -16 -4 -16 -6 0 -23 26 -37 58 -15 31 -43 90 -63 130
l-36 72 24 18 c25 18 69 40 83 41 4 1 7 -6 7 -14z m-1700 -36 c0 -9 -7 -22
-15 -29 -13 -11 -15 -7 -15 22 0 19 3 38 7 41 8 9 23 -13 23 -34z m2021 -11
c19 -6 41 -18 49 -25 49 -46 100 -98 100 -103 0 -4 11 -20 25 -36 l25 -29 -42
-6 c-48 -8 -60 -2 -127 60 -24 23 -48 41 -53 41 -5 0 -16 7 -24 15 -8 8 -22
11 -31 8 -14 -5 -12 -10 10 -27 15 -12 52 -45 84 -74 l57 -52 -21 -37 c-12
-21 -26 -39 -31 -41 -5 -1 -17 18 -26 43 -10 25 -22 45 -27 45 -5 0 -9 5 -9
10 0 6 -16 34 -35 62 -38 55 -38 67 -3 126 22 35 29 37 79 20z m-2171 -22 c0
-46 -15 -79 -39 -87 -43 -15 -98 -134 -92 -201 1 -15 -10 -47 -24 -72 -24 -41
-29 -45 -48 -35 -12 7 -23 13 -25 14 -2 2 8 27 22 56 14 29 26 56 26 61 0 22
-22 2 -59 -54 l-40 -61 -30 32 c-17 18 -31 37 -31 43 0 22 27 57 99 128 95 94
141 127 152 108 6 -9 9 -5 9 12 0 17 11 32 33 47 38 26 47 28 47 9z m70 -57
c0 -5 -4 -9 -10 -9 -5 0 -10 7 -10 16 0 8 5 12 10 9 6 -3 10 -10 10 -16z
m-110 -117 c-17 -36 -40 -56 -40 -36 0 10 34 69 45 76 17 12 15 3 -5 -40z
m2177 -76 c12 -17 30 -41 39 -53 22 -31 7 -77 -27 -81 -24 -3 -26 1 -38 75 -7
43 -15 89 -17 103 -4 23 -4 24 8 6 7 -10 23 -32 35 -50z m400 12 c12 -15 20
-59 28 -147 3 -36 10 -70 15 -75 4 -6 17 -34 28 -62 11 -28 34 -70 50 -95 36
-55 82 -137 82 -148 0 -10 -122 -71 -142 -71 -8 0 -19 -5 -24 -10 -8 -8 -16 4
-29 37 -10 26 -28 66 -39 87 -21 40 -46 59 -46 34 0 -11 36 -117 54 -158 5
-12 -13 -24 -76 -53 -46 -20 -87 -37 -91 -37 -36 0 -107 96 -107 146 0 56 -51
154 -118 224 -41 44 -49 73 -28 104 11 17 29 27 59 31 49 8 59 20 97 123 24
65 32 73 49 45 10 -16 11 -16 17 5 8 27 34 28 90 3 l41 -19 28 24 c31 27 48
30 62 12z m-2562 -185 c-2 -7 0 -13 6 -13 6 0 17 -7 25 -15 14 -13 13 -16 -10
-25 -14 -5 -26 -15 -26 -23 0 -7 -11 -28 -25 -47 -22 -29 -25 -44 -25 -111 0
-75 1 -79 39 -127 56 -71 121 -100 237 -108 111 -8 175 10 234 65 40 37 73
108 68 146 -2 16 3 21 27 23 17 2 35 8 42 14 15 12 73 -11 73 -29 0 -15 2 -15
24 -7 9 3 16 14 16 23 0 9 3 12 8 6 10 -15 63 -37 94 -40 20 -2 29 3 33 16 4
11 14 18 23 17 12 -2 16 3 14 15 -4 21 11 19 85 -13 56 -24 129 -35 137 -21
15 24 25 9 24 -38 0 -28 5 -65 11 -84 16 -47 97 -120 172 -153 59 -27 73 -29
184 -29 110 0 126 3 189 29 89 38 121 67 155 144 14 30 27 28 46 -7 8 -16 19
-31 25 -33 7 -2 7 -13 0 -35 -6 -17 -10 -48 -8 -68 3 -33 8 -41 51 -63 26 -14
47 -32 47 -39 0 -8 6 -16 14 -19 8 -3 12 -12 9 -20 -3 -10 0 -12 10 -8 19 7
11 34 -11 34 -13 0 -12 3 4 15 10 8 31 15 45 15 23 0 28 -7 44 -57 10 -32 20
-65 23 -73 4 -13 5 -13 10 -1 2 8 -1 51 -8 96 -11 71 -11 86 3 111 8 16 23 48
32 72 24 55 45 74 45 39 0 -14 -4 -28 -9 -31 -18 -12 -21 -83 -5 -132 9 -27
21 -53 25 -59 5 -5 9 -42 9 -82 0 -49 6 -85 16 -105 13 -24 15 -44 9 -87 -4
-31 -7 -64 -7 -74 1 -12 -23 -29 -81 -58 -45 -22 -86 -44 -91 -50 -6 -5 -20
-9 -33 -9 -13 0 -48 -13 -78 -29 -30 -16 -74 -32 -97 -36 -24 -4 -48 -11 -53
-15 -20 -16 -261 -59 -340 -61 l-80 -2 3 54 c2 30 10 68 17 84 7 17 20 50 30
75 9 25 23 52 30 60 7 8 25 42 41 75 51 108 34 224 -38 258 -18 9 -96 23 -173
31 -89 10 -155 23 -180 34 -22 11 -56 22 -76 26 -21 4 -42 13 -49 21 -7 8 -18
15 -26 15 -7 0 -28 13 -46 28 -33 28 -75 58 -110 78 -10 6 -25 20 -32 30 -21
28 -148 25 -179 -5 -13 -11 -27 -21 -31 -21 -5 0 -39 -27 -77 -59 -81 -71
-131 -86 -250 -75 -69 6 -81 4 -118 -17 -23 -12 -41 -26 -41 -29 0 -4 -11 -20
-25 -36 -14 -16 -32 -43 -40 -60 -8 -18 -35 -53 -59 -78 l-43 -46 -42 82 c-74
148 -92 334 -51 518 22 101 70 220 104 258 l21 23 22 -28 c13 -15 21 -34 18
-40z m1716 -40 c13 -15 12 -15 -6 -6 -11 6 -27 13 -35 16 -10 4 -8 6 6 6 12 1
28 -6 35 -16z m-1491 -54 c25 -17 74 -44 110 -61 95 -45 117 -63 122 -100 15
-97 -59 -158 -202 -166 -66 -3 -93 -1 -120 12 -67 32 -89 47 -114 77 -22 26
-26 40 -26 98 0 78 12 100 78 142 58 37 95 36 152 -2z m1450 -7 c79 -45 116
-95 125 -167 9 -71 -7 -117 -53 -153 -59 -44 -165 -82 -251 -89 -69 -5 -83 -3
-158 26 -86 34 -127 68 -152 130 -12 27 -12 41 -1 87 13 51 17 57 59 78 25 13
67 29 94 36 26 7 50 17 53 21 3 5 15 9 27 9 13 0 49 14 82 30 70 35 103 33
175 -8z m438 -89 c-7 -9 -19 -3 -45 23 -29 29 -33 37 -22 50 11 14 17 11 45
-23 23 -27 29 -42 22 -50z m972 -60 c0 -18 21 -55 40 -69 16 -13 9 -26 -15
-30 -8 -1 -11 4 -8 11 2 8 0 22 -6 32 -8 14 -10 8 -11 -30 0 -62 -15 -53 -24
15 -3 29 -9 69 -13 88 l-6 35 22 -19 c11 -11 21 -25 21 -33z m-990 1 c0 -19
-16 -18 -24 2 -11 27 -7 37 9 24 8 -7 15 -19 15 -26z m40 16 c0 -5 -5 -10 -11
-10 -5 0 -7 5 -4 10 3 6 8 10 11 10 2 0 4 -4 4 -10z m-250 -25 c11 -20 11 -27
0 -40 -20 -24 -26 -18 -27 25 -2 46 8 51 27 15z m1032 -125 c32 -62 101 -148
114 -143 8 3 11 10 7 15 -8 15 -11 98 -3 93 12 -8 18 -109 8 -129 -8 -14 -7
-17 3 -11 9 6 11 0 5 -25 -4 -23 -1 -41 9 -57 12 -17 13 -28 5 -42 -7 -14 -6
-21 3 -24 9 -3 7 -9 -5 -23 -17 -17 -18 -17 -24 2 -4 10 -24 56 -45 100 -22
45 -39 84 -39 87 0 3 -13 29 -30 57 -16 28 -32 61 -36 74 -3 14 -20 42 -38 63
-37 43 -56 76 -56 95 1 15 103 -95 122 -132z m-723 95 c8 -29 6 -43 -12 -80
-37 -75 -69 -68 -81 16 -6 41 -4 48 20 72 37 38 61 35 73 -8z m980 -34 c0 -10
-2 -11 -6 -3 -2 6 -8 10 -13 7 -5 -3 -11 4 -15 15 -4 11 -11 17 -17 14 -7 -4
-8 -2 -4 4 10 16 56 -15 55 -37z m-1235 -34 c-9 -24 -31 -21 -39 4 -5 14 -2
25 6 30 19 11 42 -13 33 -34z m1216 3 c0 -5 -10 -14 -21 -21 -13 -7 -17 -14
-11 -18 6 -3 14 -19 17 -34 4 -15 11 -27 16 -27 5 0 9 -9 9 -20 0 -11 -5 -20
-11 -20 -6 0 -9 -6 -6 -14 3 -8 -1 -17 -8 -20 -8 -3 -12 -12 -9 -21 3 -8 1
-15 -5 -15 -6 0 -11 3 -11 8 0 4 -3 49 -6 100 -4 78 -2 92 11 92 8 0 15 5 15
10 0 6 5 10 10 10 6 0 10 -4 10 -10z m20 -40 c0 -5 -7 -10 -15 -10 -8 0 -15 5
-15 10 0 6 7 10 15 10 8 0 15 -4 15 -10z m-1169 -52 c11 -22 18 -43 15 -46 -3
-3 -6 0 -6 6 0 7 -7 12 -16 12 -8 0 -24 5 -34 10 -16 9 -17 15 -8 40 12 36 22
32 49 -22z m-2511 27 c7 -9 26 -25 42 -36 23 -17 32 -18 43 -9 22 19 32 5 39
-57 12 -105 66 -260 87 -248 6 4 7 14 3 24 -8 19 -31 143 -40 219 l-7 52 40 0
40 0 5 -62 c8 -96 84 -298 112 -298 6 0 1 -7 -10 -15 -10 -8 -29 -15 -41 -15
-12 0 -69 -22 -125 -50 -56 -27 -106 -50 -110 -50 -13 0 -67 118 -77 168 -5
26 -17 74 -25 107 -16 60 -22 265 -9 278 10 11 19 8 33 -8z m1275 -40 c28 -14
70 -40 95 -59 131 -101 291 -154 471 -155 74 -1 77 -2 118 -40 41 -38 43 -42
36 -80 -6 -34 -37 -104 -82 -186 -44 -80 -92 -266 -99 -384 -8 -145 -23 -233
-44 -256 -11 -12 -20 -25 -20 -29 0 -18 -57 -79 -101 -108 -27 -17 -49 -34
-49 -38 0 -4 -12 -12 -27 -19 -16 -7 -39 -20 -53 -29 -32 -21 -149 -62 -176
-62 -11 0 -56 -9 -100 -21 -159 -42 -563 -59 -734 -31 -100 17 -196 45 -252
73 -10 5 -22 9 -28 9 -22 0 -156 68 -174 89 -11 11 -24 21 -29 21 -6 0 -44 35
-84 77 -75 80 -103 131 -118 221 -7 45 9 160 28 197 17 33 111 145 122 145 6
0 27 17 47 39 21 21 59 49 85 62 27 13 50 26 53 29 3 4 32 16 65 29 206 79
239 96 291 153 23 24 54 66 69 94 16 27 43 64 62 81 l33 33 103 -3 c121 -2
161 11 247 84 68 57 125 88 165 88 17 1 53 -10 80 -24z m2422 -27 c-3 -8 -6
-5 -6 6 -1 11 2 17 5 13 3 -3 4 -12 1 -19z m-1185 -24 c28 -3 57 -27 58 -48 0
-13 -111 1 -126 16 -8 7 -11 23 -8 35 5 19 9 21 26 12 11 -6 33 -12 50 -15z
m1098 -151 c-11 -17 -11 -17 -6 0 3 10 7 26 7 35 1 15 2 15 6 0 2 -10 -1 -25
-7 -35z m137 -85 c-3 -7 -5 -2 -5 12 0 14 2 19 5 13 2 -7 2 -19 0 -25z m-232
-66 c4 -20 13 -44 20 -52 7 -8 16 -26 20 -40 4 -14 17 -47 29 -75 60 -135 93
-402 69 -550 -18 -106 -41 -178 -69 -217 -13 -17 -24 -39 -24 -47 0 -19 -84
-112 -122 -136 -15 -9 -44 -19 -64 -22 -21 -3 -46 -15 -59 -29 -26 -28 -40
-30 -49 -9 -3 9 -19 16 -38 16 -27 1 -28 3 -9 6 14 3 33 16 44 29 11 14 22 22
25 19 4 -3 0 -10 -7 -14 -7 -5 -10 -14 -7 -20 10 -15 22 -14 24 2 0 6 4 23 8
36 5 16 4 22 -4 18 -12 -8 -42 1 -42 13 0 4 15 8 33 9 17 1 38 3 45 3 6 1 12
9 12 19 0 12 -6 16 -20 12 -30 -8 -24 14 8 30 15 7 26 19 25 25 -5 24 17 64
32 58 8 -3 15 -1 15 4 0 6 -4 10 -9 10 -6 0 -6 11 0 28 15 45 49 208 49 233 0
30 -16 14 -27 -28 -13 -52 -127 -281 -142 -288 -8 -3 -19 -1 -24 4 -12 12 -37
-4 -37 -23 0 -6 5 -4 10 4 9 13 11 13 19 0 11 -16 -5 -44 -19 -35 -5 3 -11 -3
-14 -13 -10 -31 -115 -134 -131 -128 -17 6 -20 26 -5 26 6 0 10 -6 10 -12 0
-7 7 -2 16 10 21 30 14 36 -21 18 -15 -8 -34 -12 -43 -8 -13 5 -12 7 4 12 15
5 11 8 -18 14 -36 7 -48 21 -48 57 0 17 -12 23 -47 22 -23 -1 -24 53 -2 108
12 30 25 72 29 94 4 22 11 55 15 73 7 28 5 32 -12 32 -16 0 -24 -11 -34 -47
-23 -83 -67 -163 -89 -163 -13 0 -22 9 -27 28 -18 63 -5 423 22 597 2 11 4 41
4 67 l1 46 97 7 c58 5 116 15 141 26 55 24 82 24 83 2 3 -79 37 -325 44 -310
4 10 6 91 3 181 l-4 164 73 33 c41 18 81 41 89 50 9 10 29 21 44 24 16 4 39
19 52 36 20 25 25 27 34 13 7 -8 15 -32 19 -52z m69 43 c-3 -7 0 -24 7 -37 11
-21 11 -22 -4 -9 -18 14 -24 77 -7 66 5 -3 7 -12 4 -20z m53 -7 c-3 -8 -6 -5
-6 6 -1 11 2 17 5 13 3 -3 4 -12 1 -19z m-7 -93 c-4 -27 -8 -40 -9 -27 0 13
-6 32 -11 43 -8 15 -7 19 5 19 8 0 15 5 15 12 0 6 2 9 4 7 2 -2 0 -26 -4 -54z
m117 -62 c-3 -10 -5 -4 -5 12 0 17 2 24 5 18 2 -7 2 -21 0 -30z m-60 -55 c-3
-7 -5 -2 -5 12 0 14 2 19 5 13 2 -7 2 -19 0 -25z m8 -58 c-5 -7 -12 -2 -21 15
-20 38 -17 43 7 18 12 -12 18 -26 14 -33z m-1016 -101 c25 -27 17 -44 -44 -96
-25 -21 -44 -42 -41 -48 2 -6 -16 -19 -40 -29 -24 -10 -44 -24 -44 -32 0 -8
-4 -13 -9 -11 -5 1 -17 -7 -25 -18 -9 -11 -15 -15 -14 -10 2 6 -1 10 -7 10 -5
0 -9 -6 -9 -12 1 -7 -3 -13 -8 -13 -15 0 -35 -24 -30 -38 2 -6 -1 -12 -6 -12
-14 0 -88 -157 -97 -205 -4 -22 -15 -54 -25 -70 -11 -17 -25 -60 -33 -95 -8
-36 -17 -73 -22 -82 -11 -27 27 -23 54 5 33 32 81 98 81 110 0 5 20 29 45 53
25 23 45 47 45 52 0 10 38 28 51 24 4 -1 6 6 5 16 0 9 6 17 14 17 8 0 14 -8
14 -17 -1 -11 5 -18 17 -18 11 0 19 -6 19 -14 0 -8 6 -17 13 -20 9 -5 9 -7 -1
-12 -29 -13 -80 -65 -85 -87 -3 -12 -19 -60 -35 -107 -17 -47 -35 -105 -41
-130 -14 -54 -81 -231 -93 -245 -4 -5 -8 -15 -8 -22 0 -14 -35 -53 -48 -53 -4
0 -15 -13 -25 -29 -9 -16 -34 -43 -54 -60 -46 -38 -108 -91 -129 -110 -10 -9
-53 -13 -155 -15 -77 0 -142 0 -144 2 -9 9 8 30 20 26 7 -3 15 5 18 18 4 13 8
25 9 27 4 5 -79 32 -89 29 -8 -3 -13 5 -13 20 0 5 8 18 18 30 9 11 24 29 33
40 10 11 23 24 30 28 23 14 109 112 109 123 0 28 -143 -33 -185 -79 -10 -11
-24 -20 -31 -20 -7 0 -26 -11 -42 -25 -17 -14 -35 -25 -41 -25 -6 0 -11 -4
-11 -8 0 -22 -202 -117 -295 -138 -71 -16 -215 0 -237 26 -9 11 -19 20 -23 20
-4 0 -30 20 -58 45 -29 25 -57 45 -64 45 -7 0 -13 5 -13 10 0 6 -10 10 -23 10
-24 0 -56 28 -76 67 -6 13 -21 23 -31 23 -11 0 -20 7 -20 15 0 17 46 39 67 31
21 -8 36 -56 23 -72 -9 -10 -4 -16 19 -28 16 -9 37 -13 46 -10 10 4 15 2 13
-6 -2 -7 3 -15 10 -17 22 -8 13 33 -13 57 -13 12 -22 26 -20 31 11 17 81 -18
129 -66 25 -26 87 -48 99 -36 7 7 15 7 24 0 15 -13 18 -33 4 -24 -5 3 -12 1
-16 -5 -4 -6 7 -10 27 -10 18 0 48 -9 66 -20 l33 -20 54 51 c30 29 55 47 55
40 0 -16 17 -14 38 6 10 10 51 46 92 80 41 34 84 71 96 82 34 33 102 58 212
76 71 13 101 22 100 31 -2 7 2 13 7 13 6 0 9 -7 7 -15 -4 -19 27 -18 34 1 4
10 11 12 23 6 13 -7 20 -4 30 11 7 11 15 18 17 15 7 -7 -33 -169 -56 -227 -18
-46 -39 -161 -27 -150 14 13 86 241 111 352 17 77 55 167 87 209 34 43 59 91
59 112 0 10 21 57 46 105 26 48 84 162 130 254 88 174 144 248 187 248 13 0
32 7 43 15 27 20 50 18 73 -6z m1046 1 c3 -5 1 -10 -4 -10 -6 0 -11 5 -11 10
0 6 2 10 4 10 3 0 8 -4 11 -10z m-1393 -196 l31 -16 -38 -34 c-21 -19 -42 -34
-47 -34 -4 0 -8 -8 -8 -17 0 -9 -3 -13 -6 -10 -4 4 -25 -9 -48 -29 -63 -54
-63 -54 -96 -54 -16 0 -30 -4 -30 -9 0 -8 -18 -13 -80 -24 -9 -2 -21 -6 -27
-10 -7 -5 -21 -4 -30 1 -10 5 -23 7 -30 5 -6 -2 -14 1 -18 6 -11 19 -28 12
-22 -9 3 -13 0 -20 -9 -20 -15 0 -19 35 -5 44 4 3 11 18 14 34 8 41 102 130
172 163 53 25 71 29 153 29 66 0 102 -5 124 -16z m1425 -126 c-3 -8 -6 -5 -6
6 -1 11 2 17 5 13 3 -3 4 -12 1 -19z m-1614 -85 c-7 -2 -21 -2 -30 0 -10 3 -4
5 12 5 17 0 24 -2 18 -5z m434 -60 c-3 -10 -5 -4 -5 12 0 17 2 24 5 18 2 -7 2
-21 0 -30z m-517 13 c0 -3 -4 -8 -10 -11 -5 -3 -10 -1 -10 4 0 6 5 11 10 11 6
0 10 -2 10 -4z m-126 -53 c4 -8 -3 -13 -18 -13 -28 0 -56 9 -56 19 0 12 69 7
74 -6z m-104 -24 c-7 -11 -14 -19 -16 -16 -7 7 7 37 17 37 6 0 5 -9 -1 -21z
m1420 -248 c0 -13 -29 -35 -37 -28 -7 8 15 37 28 37 5 0 9 -4 9 -9z m-1202
-69 c2 -7 -2 -10 -11 -6 -9 3 -25 -5 -38 -19 -23 -23 -100 -47 -98 -30 1 10
121 72 133 69 6 -1 12 -8 14 -14z m1132 2 c0 -11 -6 -15 -20 -11 -11 3 -23 1
-26 -4 -3 -5 -10 -9 -16 -9 -19 0 25 39 45 39 9 1 17 -6 17 -15z m-2861 -128
c-9 -8 -10 -8 -4 3 6 11 4 13 -8 8 -16 -6 -16 -3 -2 30 8 19 16 38 17 42 1 3
3 -11 5 -33 3 -22 -1 -43 -8 -50z m1561 34 c0 -5 -5 -10 -11 -10 -5 0 -7 5 -4
10 3 6 8 10 11 10 2 0 4 -4 4 -10z m1627 -67 c-3 -10 -5 -2 -5 17 0 19 2 27 5
18 2 -10 2 -26 0 -35z m-3140 21 c25 -7 133 -161 133 -190 -1 -11 -6 -39 -13
-64 -15 -55 -39 -61 -75 -18 -16 19 -27 25 -32 18 -10 -16 -28 34 -34 95 -20
182 -22 170 21 159z m3213 -64 c0 -5 -5 -10 -11 -10 -5 0 -7 5 -4 10 3 6 8 10
11 10 2 0 4 -4 4 -10z m-675 -350 c22 -11 33 -19 25 -19 -20 -1 -99 37 -80 38
8 0 33 -8 55 -19z"/>
<path d="M911 2872 c49 -38 137 -90 225 -134 50 -25 103 -58 117 -72 32 -32
57 -33 86 -2 14 15 30 22 42 19 15 -4 19 0 19 21 0 16 -4 25 -10 21 -21 -13
-207 37 -265 70 -111 63 -136 75 -164 75 -16 0 -33 5 -36 10 -3 6 -13 10 -22
10 -11 0 -9 -5 8 -18z"/>
<path d="M1552 2785 c-7 -14 -12 -33 -12 -42 0 -11 -6 -14 -24 -9 -14 3 -28 1
-31 -5 -4 -6 -13 -8 -21 -5 -22 9 -42 -3 -48 -30 -4 -13 -11 -24 -16 -24 -13
0 -13 -27 1 -35 6 -4 21 3 33 14 14 13 29 19 40 15 9 -3 23 -1 31 6 12 10 15
9 15 -9 0 -25 17 -28 24 -3 11 39 28 143 24 147 -3 3 -10 -6 -16 -20z"/>
<path d="M2536 3042 c-3 -6 -1 -14 5 -17 14 -9 20 -2 10 14 -6 8 -11 9 -15 3z"/>
<path d="M3060 2688 c0 -25 6 -53 14 -64 14 -18 15 -18 22 -1 7 20 -11 93 -26
102 -6 4 -10 -12 -10 -37z"/>
<path d="M3233 2685 c-8 -22 6 -33 17 -15 13 20 12 30 0 30 -6 0 -13 -7 -17
-15z"/>
<path d="M3120 2655 c7 -8 16 -15 21 -15 5 0 9 7 9 15 0 9 -9 15 -21 15 -18 0
-19 -2 -9 -15z"/>
<path d="M3257 2650 c-3 -13 -14 -20 -29 -21 -23 0 -23 0 -2 -11 15 -7 28 -7
40 1 13 7 14 10 5 11 -11 0 -10 5 4 20 15 17 16 20 3 20 -9 0 -18 -9 -21 -20z"/>
<path d="M3153 2628 c-4 -7 -13 -22 -18 -33 -8 -15 -19 -19 -43 -17 -18 2 -32
1 -32 -2 0 -12 52 -27 71 -21 19 6 61 70 52 79 -10 10 -21 7 -30 -6z"/>
<path d="M2860 2542 c0 -13 43 -49 68 -57 29 -9 29 9 -3 40 -23 24 -65 34 -65
17z"/>
<path d="M2975 2519 c-9 -27 4 -39 16 -16 6 9 14 17 20 17 5 0 -1 -18 -13 -39
-12 -22 -19 -43 -15 -47 14 -14 38 22 44 65 5 39 4 41 -20 41 -17 0 -28 -7
-32 -21z"/>
<path d="M1455 2260 c3 -5 8 -10 11 -10 2 0 4 5 4 10 0 6 -5 10 -11 10 -5 0
-7 -4 -4 -10z"/>
<path d="M2760 1883 c0 -10 5 -25 10 -33 7 -11 10 -7 10 18 0 17 -4 32 -10 32
-5 0 -10 -8 -10 -17z"/>
<path d="M900 2385 c-31 -37 32 -87 67 -52 14 13 14 21 5 42 -13 28 -52 34
-72 10z"/>
<path d="M2170 2331 c-15 -29 -12 -49 9 -61 30 -16 71 4 71 34 0 42 -61 62
-80 27z"/>
<path d="M1143 1933 c-20 -7 -17 -112 2 -120 24 -9 30 3 30 64 0 55 -7 67 -32
56z"/>
<path d="M1410 1878 c-54 -35 -73 -55 -67 -72 9 -22 55 -20 103 3 22 11 52 23
67 26 29 8 36 32 15 53 -19 19 -80 14 -118 -10z"/>
<path d="M3130 1551 c0 -8 -8 -20 -17 -27 -16 -11 -16 -15 -4 -36 43 -68 45
-77 28 -137 -14 -47 -14 -58 -2 -67 7 -5 13 -17 12 -25 -4 -34 19 -15 34 29
11 33 26 54 50 70 42 28 139 132 139 150 0 6 -6 12 -14 12 -8 0 -16 5 -18 11
-5 16 -44 2 -71 -25 -12 -13 -30 -26 -40 -29 -18 -7 -23 -2 -72 58 -13 17 -25
24 -25 16z m86 -111 c19 -7 31 -7 43 1 9 6 -1 -5 -22 -26 -21 -20 -40 -35 -41
-33 -6 6 -16 68 -11 68 2 0 16 -5 31 -10z"/>
<path d="M3356 755 c-3 -8 -1 -15 4 -15 6 0 10 7 10 15 0 8 -2 15 -4 15 -2 0
-6 -7 -10 -15z"/>
<path d="M1490 3961 c0 -22 5 -43 10 -46 6 -4 10 12 10 39 0 25 -4 46 -10 46
-5 0 -10 -18 -10 -39z"/>
<path d="M2426 3963 c-3 -21 -6 -80 -6 -131 0 -80 3 -98 21 -120 l21 -27 -7
58 -8 59 65 62 c41 41 91 76 138 100 66 32 70 36 42 36 -34 0 -95 -27 -143
-63 l-27 -20 -31 22 c-17 12 -31 31 -31 42 0 35 -27 20 -34 -18z"/>
<path d="M2854 3967 c-12 -18 -25 -43 -29 -56 l-7 -24 28 20 c16 11 56 32 89
45 33 14 71 30 85 36 22 9 23 11 4 11 -11 1 -44 -10 -72 -24 -29 -14 -59 -25
-69 -25 -14 0 -12 4 7 25 22 23 22 25 4 25 -10 0 -28 -15 -40 -33z"/>
<path d="M2774 3938 c-49 -52 -98 -118 -92 -124 3 -2 22 21 43 52 21 31 49 63
61 71 18 12 41 43 31 43 -2 0 -21 -19 -43 -42z"/>
<path d="M1050 3900 c-20 -68 -42 -334 -27 -319 4 3 7 37 8 75 0 38 12 123 25
188 13 66 22 121 20 124 -3 2 -14 -28 -26 -68z"/>
<path d="M1407 3868 c-49 -140 -75 -231 -87 -308 -13 -87 -13 -110 4 -110 9 0
12 8 8 26 -2 14 1 51 8 83 22 98 50 205 60 226 12 26 51 177 46 182 -2 2 -19
-43 -39 -99z"/>
<path d="M2132 3833 c-59 -117 -88 -193 -72 -193 4 0 11 11 14 24 9 35 114
254 126 261 13 8 13 25 1 25 -5 0 -36 -53 -69 -117z"/>
<path d="M1032 3550 c0 -14 2 -19 5 -12 2 6 2 18 0 25 -3 6 -5 1 -5 -13z"/>
<path d="M1277 3323 c-4 -3 -7 -11 -7 -17 0 -6 5 -5 12 2 6 6 9 14 7 17 -3 3
-9 2 -12 -2z"/>
<path d="M3280 3236 c0 -2 7 -7 16 -10 8 -3 12 -2 9 4 -6 10 -25 14 -25 6z"/>
<path d="M1480 3144 c0 -8 5 -12 10 -9 6 3 10 10 10 16 0 5 -4 9 -10 9 -5 0
-10 -7 -10 -16z"/>
<path d="M3655 3060 c-3 -5 10 -16 29 -25 37 -18 53 -38 99 -125 16 -30 35
-66 42 -80 52 -98 143 -355 131 -368 -3 -2 -12 10 -20 27 -14 26 -44 69 -130
186 -8 11 -41 52 -74 90 -119 141 -124 123 -10 -35 147 -202 177 -245 177
-254 1 -6 10 -19 21 -31 10 -11 33 -45 49 -75 l31 -55 0 70 c0 40 -8 96 -19
132 -11 35 -17 73 -15 85 2 13 1 17 -2 10 -4 -9 -10 -5 -20 13 -8 15 -14 32
-14 37 0 5 -11 33 -24 62 -14 29 -30 72 -36 95 -6 22 -14 41 -19 41 -4 0 -17
18 -29 40 -23 43 -16 53 13 20 10 -11 33 -25 51 -32 19 -7 34 -16 34 -20 0
-10 72 -40 79 -32 7 7 -12 22 -119 94 -45 30 -87 60 -94 66 -16 15 -87 59
-108 67 -10 3 -20 2 -23 -3z"/>
<path d="M3940 2826 c0 -2 8 -10 18 -17 15 -13 16 -12 3 4 -13 16 -21 21 -21
13z"/>
</g>
</svg>
